# xmcd CD database file
#
# Track frame offsets:
#	150
#	19575
#	41478
#	60903
#
# Disc length: 1102 seconds
#
# Revision: 0
# Processed by: cddbd v1.5PL3 Copyright (c) Steve Scherf et al.
# Submitted via: CDex 1.50beta10
#
DISCID=23044c04
DTITLE=久川 綾 - 月と太陽のめぐり
DYEAR=1996
DGENRE=Anime
TTITLE0=月と太陽のめぐり
TTITLE1=遙かな風
TTITLE2=月と太陽のめぐり(off vocal version)
TTITLE3=遙かな風(off vocal version)
EXTD=YEAR: 1996
EXTT0=
EXTT1=
EXTT2=
EXTT3=
PLAYORDER=
